<svg width="16" height="16" viewBox="0 0 16 16" fill="none" xmlns="http://www.w3.org/2000/svg">
<g clip-path="url(#clip0_3815_7321)">
<path d="M8 10.9H3L5.5 7.4L7 9.5L9.5 6L13 10.9H8Z" fill="#3387C5"/>
<path d="M13.61 14.98C13.48 14.7 13.4 14.39 13.49 14.08C13.49 14.05 13.51 14.03 13.52 14H2V2H14V13.47C14.1 13.42 14.2 13.38 14.3 13.34C14.35 13.32 14.4 13.29 14.45 13.26C14.43 13.28 14.4 13.3 14.38 13.31C14.51 13.2 14.66 13.14 14.84 13.13C14.89 13.13 14.94 13.13 14.99 13.15V1H1V15H13.63C13.63 15 13.63 14.99 13.62 14.98H13.61Z" fill="#3387C5"/>
<path d="M11.5 16C13.9853 16 16 13.9853 16 11.5C16 9.01472 13.9853 7 11.5 7C9.01472 7 7 9.01472 7 11.5C7 13.9853 9.01472 16 11.5 16Z" fill="#3387C5"/>
<path d="M14 14H9V9H12L14 11V14Z" fill="white"/>
<path d="M12 10H10V12H12V10Z" fill="#3387C5"/>
</g>
<defs>
<clipPath id="clip0_3815_7321">
<rect width="15" height="15" fill="white" transform="translate(1 1)"/>
</clipPath>
</defs>
</svg>
