<svg width="16" height="16" viewBox="0 0 16 16" fill="none" xmlns="http://www.w3.org/2000/svg">
<g clip-path="url(#clip0_3815_9135)">
<path d="M11 7H5V10H11V7Z" fill="#3387C5"/>
<path d="M8.57977 5C8.80977 5 8.99977 5.19 8.99977 5.42V7.27H6.99977V5.42C6.99977 5.19 7.18977 5 7.41977 5H8.56977M8.57977 4H7.42977C6.63977 4 6.00977 4.64 6.00977 5.42V8.08C6.00977 8.18 6.08977 8.27 6.19977 8.27H9.81977C9.91977 8.27 10.0098 8.19 10.0098 8.08V5.42C10.0098 4.63 9.36977 4 8.58977 4H8.57977Z" fill="#3387C5"/>
<path d="M8 2.1L13 4.38V7.26C13 11.16 9.14 12.96 8 13.41C6.86 12.96 3 11.16 3 7.26V4.38L8 2.1ZM8 1L2 3.73V7.25C2 12.54 8 14.46 8 14.46C8 14.46 14 12.54 14 7.25V3.73L8 1Z" fill="#3387C5"/>
</g>
<defs>
<clipPath id="clip0_3815_9135">
<rect width="12" height="13.46" fill="white" transform="translate(2 1)"/>
</clipPath>
</defs>
</svg>
