<svg width="16" height="16" viewBox="0 0 16 16" fill="none" xmlns="http://www.w3.org/2000/svg">
<g clip-path="url(#clip0_4857_587)">
<path d="M8 9.76953L11 12.7695L15 7.76953" stroke="#338ECC" stroke-miterlimit="10"/>
<path d="M5.23 7.65937H4.19L3.67 6.24937H1.56L1.02 7.65937H0L2.18 2.10938H3.05L5.23 7.66937V7.65937ZM3.36 5.38938L2.63 3.30937L1.88 5.38938H3.36Z" fill="#338ECC"/>
<path d="M9.1001 5.95938C9.1001 6.53938 8.9001 6.97937 8.5001 7.27938C8.1501 7.53938 7.6701 7.66937 7.0701 7.66937H5.6001V2.10938H7.0101C7.5401 2.10938 7.9701 2.21937 8.2801 2.44937C8.6301 2.70937 8.8101 3.08938 8.8101 3.60938C8.8101 4.07938 8.6101 4.43938 8.2001 4.66938C8.4901 4.75938 8.7101 4.91938 8.8701 5.14938C9.0301 5.37938 9.1101 5.64938 9.1101 5.95938H9.1001ZM7.8501 3.65937C7.8501 3.20937 7.5701 2.98937 7.0101 2.98937H6.5301V4.37938H6.8801C7.1801 4.37938 7.4101 4.33938 7.5601 4.24938C7.7501 4.13938 7.8501 3.94937 7.8501 3.65937ZM8.1501 6.00938C8.1501 5.44938 7.8201 5.16938 7.1701 5.16938H6.5301V6.77938H7.1601C7.5701 6.77938 7.8601 6.67937 8.0101 6.47937C8.1001 6.36937 8.1401 6.20938 8.1401 6.00938H8.1501Z" fill="#338ECC"/>
<path d="M15.0001 6.09977C14.7701 6.63977 14.4301 7.04977 13.9901 7.33977C13.5501 7.62977 13.0301 7.77977 12.4501 7.77977C11.6401 7.77977 10.9601 7.49977 10.4101 6.92977C9.86008 6.35977 9.58008 5.66977 9.58008 4.85977C9.58008 4.04977 9.86008 3.38977 10.4101 2.83977C10.9701 2.27977 11.6401 2.00977 12.4301 2.00977C13.0201 2.00977 13.5401 2.15977 14.0001 2.44977C14.4601 2.74977 14.7901 3.16977 14.9901 3.70977H13.9001C13.5601 3.17977 13.0601 2.91977 12.4201 2.91977C11.9001 2.91977 11.4601 3.10977 11.1001 3.49977C10.7401 3.88977 10.5601 4.33977 10.5601 4.86977C10.5601 5.39977 10.7401 5.86977 11.1001 6.26977C11.4601 6.66977 11.9001 6.86977 12.4301 6.86977C13.0701 6.86977 13.5601 6.61977 13.8801 6.10977H15.0001V6.09977Z" fill="#338ECC"/>
</g>
<defs>
<clipPath id="clip0_4857_587">
<rect width="15.39" height="11.52" fill="white" transform="translate(0 2)"/>
</clipPath>
</defs>
</svg>
