<svg width="16" height="16" viewBox="0 0 16 16" fill="none" xmlns="http://www.w3.org/2000/svg">
<g clip-path="url(#clip0_4857_913)">
<path d="M4 13H3V3H4V13Z" fill="#338ECC"/>
<path d="M6 13V3H8.99C10.51 3 11.72 3.45 12.64 4.34C13.55 5.23 14.2 6.46 14.2 8.01C14.2 9.56 13.54 10.85 12.58 11.72C11.66 12.57 10.41 13 8.82 13H6.01H6ZM7.13 4.08V11.91H8.92C10.15 11.91 11.11 11.57 11.79 10.89C12.47 10.21 13 9.25 13 8C13 6.75 12.45 5.77 11.71 5.08C11.01 4.41 10.03 4.08 8.79 4.08H7.14H7.13Z" fill="#338ECC"/>
<path d="M5 3H2V4H5V3Z" fill="#338ECC"/>
<path d="M5 12H2V13H5V12Z" fill="#338ECC"/>
</g>
<defs>
<clipPath id="clip0_4857_913">
<rect width="12.19" height="10" fill="white" transform="translate(2 3)"/>
</clipPath>
</defs>
</svg>
