<svg width="16" height="16" viewBox="0 0 16 16" fill="none" xmlns="http://www.w3.org/2000/svg">
<g clip-path="url(#clip0_4857_1058)">
<path d="M13 2V14H3V2H13ZM14 1H2V15H14V1Z" fill="#338ECC"/>
<path d="M8.5 11H7.5V12H8.5V11Z" fill="#338ECC"/>
<path d="M8.00006 4C6.86006 4 5.86006 4.77 5.58006 5.88C5.57006 5.92 5.58006 5.96 5.56006 6H6.60006C6.81006 5.41 7.36006 5 8.00006 5C9.04006 5 9.50006 5.46 9.50006 6.5C9.50006 6.92 9.27006 7.16 8.84006 7.58C8.32006 8.08 7.68006 8.7 7.53006 9.94C7.53006 9.96 7.53006 9.98 7.53006 10H8.54006C8.66006 9.16 9.09006 8.74 9.54006 8.3C9.99006 7.86 10.5001 7.37 10.5001 6.5C10.5001 4.91 9.59006 4 8.00006 4Z" fill="#338BC9"/>
</g>
<defs>
<clipPath id="clip0_4857_1058">
<rect width="12" height="14" fill="white" transform="translate(2 1)"/>
</clipPath>
</defs>
</svg>
