<svg width="16" height="16" viewBox="0 0 16 16" fill="none" xmlns="http://www.w3.org/2000/svg">
<g clip-path="url(#clip0_3802_860)">
<path d="M5 4C5.55 4 6 4.45 6 5C6 5.55 5.55 6 5 6C4.45 6 4 5.55 4 5C4 4.45 4.45 4 5 4ZM5 3C3.9 3 3 3.9 3 5C3 6.1 3.9 7 5 7C6.1 7 7 6.1 7 5C7 3.9 6.1 3 5 3Z" fill="#3387C5"/>
<path d="M10 9C10.55 9 11 9.45 11 10C11 10.55 10.55 11 10 11C9.45 11 9 10.55 9 10C9 9.45 9.45 9 10 9ZM10 8C8.9 8 8 8.9 8 10C8 11.1 8.9 12 10 12C11.1 12 12 11.1 12 10C12 8.9 11.1 8 10 8Z" fill="#3387C5"/>
<path d="M12 2C12.55 2 13 2.45 13 3C13 3.55 12.55 4 12 4C11.45 4 11 3.55 11 3C11 2.45 11.45 2 12 2ZM12 1C10.9 1 10 1.9 10 3C10 4.1 10.9 5 12 5C13.1 5 14 4.1 14 3C14 1.9 13.1 1 12 1Z" fill="#3387C5"/>
<path d="M2 1H1V15H2V1Z" fill="#3387C5"/>
<path d="M15 15V14H1V15H15Z" fill="#3387C5"/>
<path d="M3.5 12.5L5 6.5" stroke="#3387C5" stroke-miterlimit="10"/>
<path d="M10.5 8L11.5 4.5" stroke="#3387C5" stroke-miterlimit="10"/>
<path d="M9 8.5L6.5 6" stroke="#3387C5" stroke-miterlimit="10"/>
</g>
<defs>
<clipPath id="clip0_3802_860">
<rect width="14" height="14" fill="white" transform="translate(1 1)"/>
</clipPath>
</defs>
</svg>
