<svg width="16" height="16" viewBox="0 0 16 16" fill="none" xmlns="http://www.w3.org/2000/svg">
<g clip-path="url(#clip0_3802_886)">
<path d="M7 2.08V8V9H13.92C13.44 11.83 10.97 14 8 14C4.69 14 2 11.31 2 8C2 5.03 4.17 2.56 7 2.08ZM8 1C4.16 1 1 4.16 1 8C1 11.84 4.16 15 8 15C11.84 15 15 11.84 15 8H8V1Z" fill="#3387C5"/>
<path d="M9 7V1C10.59 1 12.12 1.63 13.24 2.76C14.36 3.89 15 5.41 15 7H9Z" fill="#3387C5"/>
</g>
<defs>
<clipPath id="clip0_3802_886">
<rect width="14" height="14" fill="white" transform="translate(1 1)"/>
</clipPath>
</defs>
</svg>
