<svg width="16" height="16" viewBox="0 0 16 16" fill="none" xmlns="http://www.w3.org/2000/svg">
<g clip-path="url(#clip0_3798_545)">
<path d="M11.41 1H2V14.94C2 14.94 2.03 15 2.06 15H14V3.59L11.41 1ZM13 14H3V2H11V4H13V14Z" fill="#3387C5"/>
<path d="M6 5C6.55 5 7 5.45 7 6C7 6.55 6.55 7 6 7C5.45 7 5 6.55 5 6C5 5.45 5.45 5 6 5ZM6 4C4.9 4 4 4.9 4 6C4 7.1 4.9 8 6 8C7.1 8 8 7.1 8 6C8 4.9 7.1 4 6 4Z" fill="#3387C5"/>
<path d="M10 10C10.55 10 11 10.45 11 11C11 11.55 10.55 12 10 12C9.45 12 9 11.55 9 11C9 10.45 9.45 10 10 10ZM10 9C8.9 9 8 9.9 8 11C8 12.1 8.9 13 10 13C11.1 13 12 12.1 12 11C12 9.9 11.1 9 10 9Z" fill="#3387C5"/>
<path d="M4 9V10H5V13H6V9H4Z" fill="#3387C5"/>
<path d="M9 4V5H10V8H11V4H9Z" fill="#3387C5"/>
</g>
<defs>
<clipPath id="clip0_3798_545">
<rect width="12" height="14" fill="white" transform="translate(2 1)"/>
</clipPath>
</defs>
</svg>
