<svg width="16" height="16" viewBox="0 0 16 16" fill="none" xmlns="http://www.w3.org/2000/svg">
<g clip-path="url(#clip0_3802_707)">
<path d="M8 3.75C10.34 3.75 12.25 5.66 12.25 8C12.25 10.34 10.34 12.25 8 12.25C5.66 12.25 3.75 10.34 3.75 8C3.75 5.66 5.66 3.75 8 3.75ZM8 3C5.24 3 3 5.24 3 8C3 10.76 5.24 13 8 13C10.76 13 13 10.76 13 8C13 5.24 10.76 3 8 3Z" fill="black"/>
<path d="M7.97998 11.0195C9.63683 11.0195 10.98 9.67639 10.98 8.01953C10.98 6.36268 9.63683 5.01953 7.97998 5.01953C6.32313 5.01953 4.97998 6.36268 4.97998 8.01953C4.97998 9.67639 6.32313 11.0195 7.97998 11.0195Z" fill="black"/>
</g>
<defs>
<clipPath id="clip0_3802_707">
<rect width="10" height="10" fill="white" transform="translate(3 3)"/>
</clipPath>
</defs>
</svg>
