<svg width="16" height="16" viewBox="0 0 16 16" fill="none" xmlns="http://www.w3.org/2000/svg">
<g clip-path="url(#clip0_3802_1053)">
<path d="M8.85969 8.14L8.17969 7.43L14.3197 1L14.9997 1.71L8.85969 8.14Z" fill="#3387C5"/>
<path d="M6.81984 6.50023C7.06984 6.50023 7.30984 6.60023 7.48984 6.79023L9.54984 8.95023C9.91984 9.34023 9.91984 9.97023 9.54984 10.3602L8.85984 11.0802L5.44984 7.51023L6.13984 6.79023C6.31984 6.60023 6.55984 6.50023 6.80984 6.50023M6.81984 5.49023C6.32984 5.49023 5.83984 5.69023 5.45984 6.08023L4.08984 7.52023L8.85984 12.5202L10.2298 11.0802C10.9798 10.3002 10.9798 9.02023 10.2298 8.24023L8.16984 6.08023C7.79984 5.69023 7.29984 5.49023 6.80984 5.49023H6.81984Z" fill="#3387C5"/>
<path d="M4.67 9.4502L1 10.6702L1.29 11.6402L4.96 10.4202L4.67 9.4502Z" fill="#3387C5"/>
<path d="M5.51008 11.7695L2.83008 12.9295L3.20008 13.8595L5.87008 12.7095L5.51008 11.7695Z" fill="#3387C5"/>
<path d="M8.17977 11.7197C6.81977 13.1297 6.07977 13.7797 4.27977 14.7697C1.99977 12.2597 1.21977 10.4697 1.01977 8.60973C2.75977 8.76973 3.93977 8.38973 4.63977 8.00973L8.17977 11.7197ZM9.54977 11.7197L4.77977 6.71973C4.77977 6.71973 3.41977 8.14973 0.00976562 7.42973C0.00976562 10.2897 0.859765 12.6097 4.09977 15.9997C6.82977 14.5697 7.50977 13.8597 9.55977 11.7197H9.54977Z" fill="#3387C5"/>
</g>
<defs>
<clipPath id="clip0_3802_1053">
<rect width="15" height="15" fill="white" transform="translate(0 1)"/>
</clipPath>
</defs>
</svg>
