<svg width="16" height="16" viewBox="0 0 16 16" fill="none" xmlns="http://www.w3.org/2000/svg">
<g clip-path="url(#clip0_3802_1081)">
<path d="M9.12392 4.21191H8.1416V8.45553H9.12392V4.21191Z" fill="#3387C5"/>
<path d="M8.35736 7.21777L3.36719 12.208L4.06463 12.9054L9.05481 7.91522L8.35736 7.21777Z" fill="#3387C5"/>
<path d="M8.14185 2.24794C11.3933 2.24794 14.0358 4.89038 14.0358 8.14185C14.0358 11.3933 11.3933 14.0358 8.14185 14.0358C4.89038 14.0358 2.24794 11.3933 2.24794 8.14185C2.24794 4.89038 4.89038 2.24794 8.14185 2.24794ZM8.14185 1.26562C4.34028 1.26562 1.26562 4.34028 1.26562 8.14185C1.26562 11.9434 4.34028 15.0181 8.14185 15.0181C11.9434 15.0181 15.0181 11.9434 15.0181 8.14185C15.0181 4.34028 11.9336 1.26562 8.14185 1.26562Z" fill="#3387C5"/>
<path d="M11.5796 16C14.0209 16 16 14.0209 16 11.5796C16 9.13827 14.0209 7.15918 11.5796 7.15918C9.13827 7.15918 7.15918 9.13827 7.15918 11.5796C7.15918 14.0209 9.13827 16 11.5796 16Z" fill="#3387C5"/>
<path d="M3.46791 0.997913L0.995117 3.4707L1.68972 4.16531L4.16251 1.69252L3.46791 0.997913Z" fill="#3387C5"/>
<path d="M12.7649 1.04368L12.0703 1.73828L14.5431 4.21107L15.2377 3.51647L12.7649 1.04368Z" fill="#3387C5"/>
<path d="M10.1064 14.0356V9.12402L14.0357 11.5798L10.1064 14.0356Z" fill="white"/>
</g>
<defs>
<clipPath id="clip0_3802_1081">
<rect width="15" height="15" fill="white" transform="translate(1 1)"/>
</clipPath>
</defs>
</svg>
