<svg width="16" height="16" viewBox="0 0 16 16" fill="none" xmlns="http://www.w3.org/2000/svg">
<g clip-path="url(#clip0_3802_1116)">
<path d="M9.12392 4.21191H8.1416V8.45553H9.12392V4.21191Z" fill="#3387C5"/>
<path d="M8.23949 7.3457L3.36719 12.2082L4.06463 12.9056L8.93693 8.03333L8.23949 7.3457Z" fill="#3387C5"/>
<path d="M8.14136 2.24794C11.3928 2.24794 14.0353 4.89038 14.0353 8.14185C14.0353 11.3933 11.3928 14.0358 8.14136 14.0358C4.88989 14.0358 2.24746 11.3933 2.24746 8.14185C2.24746 4.89038 4.88989 2.24794 8.14136 2.24794ZM8.14136 1.26562C4.33979 1.26562 1.26514 4.34028 1.26514 8.14185C1.26514 11.9434 4.33979 15.0181 8.14136 15.0181C11.9429 15.0181 15.0176 11.9434 15.0176 8.14185C15.0176 4.34028 11.9331 1.26562 8.14136 1.26562Z" fill="#3387C5"/>
<path d="M11.5 16C13.9853 16 16 13.9853 16 11.5C16 9.01472 13.9853 7 11.5 7C9.01472 7 7 9.01472 7 11.5C7 13.9853 9.01472 16 11.5 16Z" fill="#3387C5"/>
<path d="M3.46742 0.997913L0.994629 3.4707L1.68923 4.16531L4.16202 1.69252L3.46742 0.997913Z" fill="#3387C5"/>
<path d="M12.7644 1.04368L12.0698 1.73828L14.5426 4.21107L15.2372 3.51647L12.7644 1.04368Z" fill="#3387C5"/>
<path d="M13 10H10V13H13V10Z" fill="white"/>
</g>
<defs>
<clipPath id="clip0_3802_1116">
<rect width="15" height="15" fill="white" transform="translate(1 1)"/>
</clipPath>
</defs>
</svg>
