<svg width="16" height="16" viewBox="0 0 16 16" fill="none" xmlns="http://www.w3.org/2000/svg">
<g clip-path="url(#clip0_3808_3406)">
<path d="M8 13H2V5H14V8.65C14.38 8.89 14.71 9.18 15 9.51V4V2H1V14H8.31C8.17 13.69 8.06 13.35 8 13Z" fill="#3387C5"/>
<path d="M6 4H5V13H6V4Z" fill="#3387C5"/>
<path d="M14.5 10V9H2V10H14.5Z" fill="#3387C5"/>
<path d="M11.5 16C13.9853 16 16 13.9853 16 11.5C16 9.01472 13.9853 7 11.5 7C9.01472 7 7 9.01472 7 11.5C7 13.9853 9.01472 16 11.5 16Z" fill="#3387C5"/>
<path d="M13.4981 8.99795L12.9961 9.5L13.9931 10.497L14.4952 9.99497L13.4981 8.99795Z" fill="white"/>
<path d="M13.5 11L12.5 10L9.5 13V14H10.5L13.5 11Z" fill="white"/>
</g>
<defs>
<clipPath id="clip0_3808_3406">
<rect width="15" height="14" fill="white" transform="translate(1 2)"/>
</clipPath>
</defs>
</svg>
