<svg width="16" height="16" viewBox="0 0 16 16" fill="none" xmlns="http://www.w3.org/2000/svg">
<g clip-path="url(#clip0_3808_3961)">
<path d="M10.59 2L10.3 2.29L7.3 5.29L7.01 5.58V11.58L6.01 10.58V5.58L5.72 5.29L2.71 2.29L2.42 2H10.59ZM12 1H1V3H2L5 6V11L8 14V6L11 3H12V1Z" fill="#3387C5"/>
<path d="M11.5 16C13.9853 16 16 13.9853 16 11.5C16 9.01472 13.9853 7 11.5 7C9.01472 7 7 9.01472 7 11.5C7 13.9853 9.01472 16 11.5 16Z" fill="#3387C5"/>
<path d="M12 9.14V8H11V9.14C11.18 9.1 11.3 9.07 11.5 9.07C11.7 9.07 11.82 9.1 12 9.14Z" fill="white"/>
<path d="M11 13.8604V15.0004H12V13.8604C11.82 13.9004 11.7 13.9304 11.5 13.9304C11.3 13.9304 11.18 13.9004 11 13.8604Z" fill="white"/>
<path d="M9 9H8V10.09L9.09 10.72C9.22 10.37 9.41 10.06 9.68 9.8L9 9.41V9Z" fill="white"/>
<path d="M13.3198 13.2003L13.9998 13.5903V14.0003H14.9998V12.9103L13.9098 12.2803C13.7898 12.6303 13.5898 12.9403 13.3198 13.2003Z" fill="white"/>
<path d="M14.9998 10.09V9H13.9998V9.41L13.3198 9.8C13.5898 10.06 13.7798 10.37 13.9098 10.72L14.9998 10.09Z" fill="white"/>
<path d="M8 12.9103V14.0003H9V13.5903L9.68 13.2003C9.41 12.9403 9.22 12.6303 9.09 12.2803L8 12.9103Z" fill="white"/>
<path d="M12.9199 11.5005C12.9199 11.5605 12.9099 11.6205 12.8999 11.6805L13.9099 12.2705C13.9999 12.0305 14.0599 11.7705 14.0599 11.5005C14.0599 11.2305 13.9999 10.9705 13.9099 10.7305L12.8999 11.3205C12.8999 11.3805 12.9199 11.4405 12.9199 11.5005Z" fill="white"/>
<path d="M10.6902 12.5998L9.68018 13.1898C10.0202 13.5198 10.4502 13.7498 10.9302 13.8498V12.7198C10.8502 12.6798 10.7602 12.6398 10.6902 12.5898V12.5998Z" fill="white"/>
<path d="M10.9302 10.2696V9.13965C10.4502 9.23965 10.0102 9.47965 9.68018 9.79965L10.6902 10.3896C10.7702 10.3396 10.8502 10.2996 10.9302 10.2596V10.2696Z" fill="white"/>
<path d="M12.3098 10.4004L13.3198 9.81039C12.9798 9.48039 12.5498 9.25039 12.0698 9.15039V10.2804C12.1598 10.3204 12.2398 10.3604 12.3098 10.4104V10.4004Z" fill="white"/>
<path d="M10.0799 11.5005C10.0799 11.4405 10.0899 11.3805 10.0999 11.3205L9.08994 10.7305C8.99994 10.9705 8.93994 11.2305 8.93994 11.5005C8.93994 11.7705 8.99994 12.0305 9.08994 12.2705L10.0999 11.6805C10.0999 11.6205 10.0799 11.5605 10.0799 11.5005Z" fill="white"/>
<path d="M12.0698 12.7304V13.8604C12.5498 13.7604 12.9898 13.5204 13.3198 13.2004L12.3098 12.6104C12.2298 12.6604 12.1498 12.7004 12.0698 12.7404V12.7304Z" fill="white"/>
<path d="M11.5002 12.8502C11.3002 12.8502 11.1102 12.8102 10.9302 12.7402V13.8702C11.1102 13.9102 11.3002 13.9402 11.5002 13.9402C11.7002 13.9402 11.8802 13.9102 12.0702 13.8702V12.7402C11.9002 12.8102 11.7002 12.8502 11.5002 12.8502Z" fill="white"/>
<path d="M11.5002 10.1496C11.7002 10.1496 11.8902 10.1896 12.0702 10.2596V9.12957C11.8902 9.08957 11.7002 9.05957 11.5002 9.05957C11.3002 9.05957 11.1202 9.08957 10.9302 9.12957V10.2596C11.1002 10.1896 11.3002 10.1496 11.5002 10.1496Z" fill="white"/>
<path d="M10.6898 10.3996L9.67984 9.80957C9.40984 10.0696 9.21984 10.3796 9.08984 10.7296L10.0998 11.3196C10.1598 10.9396 10.3698 10.6096 10.6898 10.3996Z" fill="white"/>
<path d="M12.9001 11.6797C12.8401 12.0597 12.6301 12.3897 12.3101 12.5997L13.3201 13.1897C13.5901 12.9297 13.7801 12.6197 13.9101 12.2697L12.9001 11.6797Z" fill="white"/>
<path d="M10.0998 11.6797L9.08984 12.2697C9.21984 12.6197 9.40984 12.9297 9.67984 13.1897L10.6898 12.5997C10.3698 12.3897 10.1498 12.0597 10.0998 11.6797Z" fill="white"/>
<path d="M12.9001 11.3196L13.9101 10.7296C13.7901 10.3796 13.5901 10.0696 13.3201 9.80957L12.3101 10.3996C12.6301 10.6096 12.8501 10.9396 12.9001 11.3196Z" fill="white"/>
</g>
<defs>
<clipPath id="clip0_3808_3961">
<rect width="15" height="15" fill="white" transform="translate(1 1)"/>
</clipPath>
</defs>
</svg>
