<svg width="16" height="16" viewBox="0 0 16 16" fill="none" xmlns="http://www.w3.org/2000/svg">
<g clip-path="url(#clip0_3814_4891)">
<path d="M2.3575 2.0009L1.65039 2.70801L13.65 14.7076L14.3571 14.0005L2.3575 2.0009Z" fill="#3387C5"/>
<path d="M7.67969 5.67961C7.88969 5.81961 8.06969 5.99961 8.20969 6.20961L11.1897 9.18961C11.2197 8.99961 11.2497 8.79961 11.2497 8.59961C11.2497 6.80961 9.78969 5.34961 7.99969 5.34961C7.79969 5.34961 7.60969 5.38961 7.42969 5.41961L7.68969 5.67961H7.67969Z" fill="#3387C5"/>
<path d="M8 8.34934C7.75 9.09934 7.48 9.13934 6.65 9.13934C5.82 9.13934 5.1 8.57934 4.85 7.81934C4.79 8.06934 4.75 8.32934 4.75 8.59934C4.75 10.3893 6.21 11.8493 8 11.8493C9.2 11.8493 9.44 11.3193 10 10.3493L8 8.34934Z" fill="#3387C5"/>
<path d="M6.99977 4.45035C7.31977 4.39035 7.64977 4.36035 7.99977 4.36035C11.6098 4.36035 13.4198 7.75035 13.9198 8.86035C13.6998 9.34035 13.7498 9.48035 12.9998 10.3604L13.9998 11.3604C15.2598 9.91035 14.9998 8.86035 14.9998 8.86035C14.9998 8.86035 12.9998 3.36035 7.99977 3.36035C7.26977 3.36035 6.59977 3.48035 5.99977 3.68035C5.75977 3.76035 6.66977 4.51035 6.99977 4.45035Z" fill="#3387C5"/>
<path d="M11.78 11.8407C10.84 12.6807 9.6 13.3507 8 13.3507C4.39 13.3507 2.58 9.9607 2.08 8.8507C2.42 8.0907 3.38 6.2507 5.12 5.1807L4.41 4.4707C2.02 6.0707 1 8.8507 1 8.8507C1 8.8507 3 14.3507 8 14.3507C9.92 14.3507 11.39 13.5407 12.48 12.5407L11.78 11.8407Z" fill="#3387C5"/>
</g>
<defs>
<clipPath id="clip0_3814_4891">
<rect width="14.02" height="12.71" fill="white" transform="translate(1 2)"/>
</clipPath>
</defs>
</svg>
