<svg width="16" height="16" viewBox="0 0 16 16" fill="none" xmlns="http://www.w3.org/2000/svg">
<path d="M5.00271 6.13645L1.00049 10.1387L1.68638 10.8246L5.68861 6.82234L5.00271 6.13645Z" fill="#CA4827"/>
<path d="M5.71023 10.1497L1.70801 6.14746L1.0009 6.85457L5.00313 10.8568L5.71023 10.1497Z" fill="#CA4827"/>
<path d="M9 3H2V4H9V3Z" fill="#3387C5"/>
<path d="M9 13H2V14H9V13Z" fill="#3387C5"/>
<path d="M2 12V14H3V12H2Z" fill="#3387C5"/>
<path d="M2 3V5H3V3H2Z" fill="#3387C5"/>
<path d="M14 7V9H11V7H14ZM15 6H10V10H15V6Z" fill="#3387C5"/>
<path d="M14 12V14H11V12H14ZM15 11H10V15H15V11Z" fill="#3387C5"/>
<path d="M14 2V4H11V2H14ZM15 1H10V5H15V1Z" fill="#3387C5"/>
<path d="M9 8H7V9H9V8Z" fill="#3387C5"/>
</svg>
