<svg width="16" height="16" viewBox="0 0 16 16" fill="none" xmlns="http://www.w3.org/2000/svg">
<g clip-path="url(#clip0_3814_6242)">
<path d="M9 2H2V3H9V2Z" fill="#3387C5"/>
<path d="M9 13H2V14H9V13Z" fill="#3387C5"/>
<path d="M2 12V14H3V12H2Z" fill="#3387C5"/>
<path d="M2 2V4H3V2H2Z" fill="#3387C5"/>
<path d="M14 7V9H11V7H14ZM15 6H10V10H15V6Z" fill="#3387C5"/>
<path d="M14 12V14H11V12H14ZM15 11H10V15H15V11Z" fill="#3387C5"/>
<path d="M14 2V4H11V2H14ZM15 1H10V5H15V1Z" fill="#3387C5"/>
<path d="M9 8H7V9H9V8Z" fill="#3387C5"/>
<path d="M4 7V4L6 5.5L4 7Z" fill="#3387C5"/>
<path d="M4 6V5H2C0.89 5 0 5.89 0 7V8L1 7.5V7C1 6.45 1.45 6 2 6H4Z" fill="#3387C5"/>
<path d="M2 9V12L0 10.5L2 9Z" fill="#3387C5"/>
<path d="M2 10V11H4C5.1 11 6 10.11 6 9V8L5 8.5V9C5 9.55 4.55 10 4 10H2Z" fill="#3387C5"/>
</g>
<defs>
<clipPath id="clip0_3814_6242">
<rect width="15" height="14" fill="white" transform="translate(0 1)"/>
</clipPath>
</defs>
</svg>
