<svg width="16" height="16" viewBox="0 0 16 16" fill="none" xmlns="http://www.w3.org/2000/svg">
<g clip-path="url(#clip0_3815_6802)">
<path d="M1.5 3.41992V13.4999C1.5 13.4999 3.44 12.5399 4.88 12.5399C6.8 12.5399 8.24 13.4999 8.24 13.4999" stroke="#3387C5" stroke-miterlimit="10"/>
<path d="M14.4998 3.41992V13.4999C14.4998 13.4999 12.5598 12.5399 11.1198 12.5399C9.19977 12.5399 7.75977 13.4999 7.75977 13.4999" stroke="#3387C5" stroke-miterlimit="10"/>
<path d="M3.44043 1.98047V11.1005C3.44043 11.1005 4.79043 10.6205 5.36043 10.6205C6.32043 10.6205 7.76043 11.1005 7.76043 11.1005" stroke="#3387C5" stroke-miterlimit="10"/>
<path d="M7.75977 2.46C7.75977 2.46 9.19977 1.5 10.1598 1.5C11.5998 1.5 12.5598 2.46 12.5598 2.46" stroke="#3387C5" stroke-miterlimit="10"/>
<path d="M3.44043 2.46C3.44043 2.46 4.40043 1.5 5.36043 1.5C6.80043 1.5 7.76043 2.46 7.76043 2.46" stroke="#3387C5" stroke-miterlimit="10"/>
<path d="M12.5598 1.98047V11.1005C12.5598 11.1005 11.1198 10.6205 10.1598 10.6205C9.19977 10.6205 7.75977 11.1005 7.75977 11.1005" stroke="#3387C5" stroke-miterlimit="10"/>
<path d="M8.24027 1.98047H7.28027V11.5805H8.24027V1.98047Z" fill="#3387C5"/>
</g>
<defs>
<clipPath id="clip0_3815_6802">
<rect width="14" height="13.31" fill="white" transform="translate(1 1)"/>
</clipPath>
</defs>
</svg>
