<svg width="16" height="16" viewBox="0 0 16 16" fill="none" xmlns="http://www.w3.org/2000/svg">
<path d="M8 4.28027L5 2.28027" stroke="#3387C5" stroke-miterlimit="10"/>
<path d="M11 2.28027L8 4.28027" stroke="#3387C5" stroke-miterlimit="10"/>
<path d="M6 1.28027L8 4.28027" stroke="#3387C5" stroke-miterlimit="10"/>
<path d="M10 1.28027L8 4.28027" stroke="#3387C5" stroke-miterlimit="10"/>
<path d="M6.5 8C6.5 7.03 7.17 6.5 8 6.5C8.83 6.5 9.5 7.19 9.5 8.5C9.5 9.81 8.5 8.81 8.5 11" stroke="#338BC9" stroke-miterlimit="10"/>
<path d="M9 12H8V13H9V12Z" fill="#338ECC"/>
<path d="M2 4V7H3V15H13V7H14V4H2ZM13 6H11V7H12V14H4V7H5V6H3V5H13V6Z" fill="#3387C5"/>
</svg>
