<svg width="16" height="16" viewBox="0 0 16 16" fill="none" xmlns="http://www.w3.org/2000/svg">
<g clip-path="url(#clip0_3815_8531)">
<path d="M8 1V6L5 3.5L8 1Z" fill="#3387C5"/>
<path d="M8.0002 3C7.7202 3 7.4502 3.03 7.1902 3.07C7.2202 3.13 7.2402 3.2 7.2402 3.29C7.2402 3.56 7.2202 3.82 7.1702 4.09C7.4402 4.04 7.7202 4.01 8.0002 4.01C10.7602 4.01 13.0002 6.25 13.0002 9.01C13.0002 11.77 10.7602 14.01 8.0002 14.01C7.4902 14.01 7.0002 13.92 6.5302 13.77C6.5202 13.79 6.5102 13.81 6.5002 13.82C6.2502 14.08 5.9802 14.3 5.7002 14.52C6.4102 14.82 7.1802 15.01 8.0002 15.01C11.3102 15.01 14.0002 12.32 14.0002 9.01C14.0002 5.7 11.3102 3 8.0002 3Z" fill="#3387C5"/>
<path d="M5 6.41L7.59 9L5 11.59L2.41 9L5 6.41ZM5 5L1 9L5 13L9 9L5 5Z" fill="#3387C5"/>
</g>
<defs>
<clipPath id="clip0_3815_8531">
<rect width="13" height="14" fill="white" transform="translate(1 1)"/>
</clipPath>
</defs>
</svg>
