<svg width="16" height="16" viewBox="0 0 16 16" fill="none" xmlns="http://www.w3.org/2000/svg">
<g clip-path="url(#clip0_3815_9517)">
<path d="M8 7C10.24 7 11.45 8.72 11.88 9.5C11.44 10.29 10.23 12 8 12C5.77 12 4.55 10.28 4.12 9.5C4.56 8.71 5.77 7 8 7ZM8 6C4.43 6 3 9.5 3 9.5C3 9.5 4.43 13 8 13C11.57 13 13 9.5 13 9.5C13 9.5 11.57 6 8 6Z" fill="#3387C5"/>
<path d="M8.00018 7.26953C7.81018 7.26953 7.62018 7.28953 7.44018 7.32953C7.99018 7.48953 8.38018 7.93953 8.38018 8.46953C8.38018 9.13953 7.77018 9.67953 7.03018 9.67953C6.43018 9.67953 5.92018 9.32953 5.75018 8.83953C5.71018 8.99953 5.68018 9.15953 5.68018 9.33953C5.68018 10.4795 6.72018 11.4095 8.00018 11.4095C9.28018 11.4095 10.3202 10.4795 10.3202 9.33953C10.3202 8.19953 9.28018 7.26953 8.00018 7.26953Z" fill="#3387C5"/>
<path d="M14 2V14H2V2H14ZM15 1H1V15H15V1Z" fill="#3387C5"/>
<path d="M14 2H2V4H14V2Z" fill="#3387C5"/>
</g>
<defs>
<clipPath id="clip0_3815_9517">
<rect width="14" height="14" fill="white" transform="translate(1 1)"/>
</clipPath>
</defs>
</svg>
