<svg width="16" height="16" viewBox="0 0 16 16" fill="none" xmlns="http://www.w3.org/2000/svg">
<g clip-path="url(#clip0_3815_9540)">
<path d="M12 6.14V5H11V6.14C11.18 6.1 11.3 6.07 11.5 6.07C11.7 6.07 11.82 6.1 12 6.14Z" fill="#3387C5"/>
<path d="M11 10.8604V12.0004H12V10.8604C11.82 10.9004 11.7 10.9304 11.5 10.9304C11.3 10.9304 11.18 10.9004 11 10.8604Z" fill="#3387C5"/>
<path d="M9 6H8V7.09L9.09 7.72C9.22 7.37 9.41 7.06 9.68 6.8L9 6.41V6Z" fill="#3387C5"/>
<path d="M13.3198 10.2003L13.9998 10.5903V11.0003H14.9998V9.91027L13.9098 9.28027C13.7898 9.63027 13.5898 9.94027 13.3198 10.2003Z" fill="#3387C5"/>
<path d="M14.9998 7.09V6H13.9998V6.41L13.3198 6.8C13.5898 7.06 13.7798 7.37 13.9098 7.72L14.9998 7.09Z" fill="#3387C5"/>
<path d="M8 9.91027V11.0003H9V10.5903L9.68 10.2003C9.41 9.94027 9.22 9.63027 9.09 9.28027L8 9.91027Z" fill="#3387C5"/>
<path d="M12.9199 8.50047C12.9199 8.56047 12.9099 8.62047 12.8999 8.68047L13.9099 9.27047C13.9999 9.03047 14.0599 8.77047 14.0599 8.50047C14.0599 8.23047 13.9999 7.97047 13.9099 7.73047L12.8999 8.32047C12.8999 8.38047 12.9199 8.44047 12.9199 8.50047Z" fill="#3387C5"/>
<path d="M10.6902 9.59984L9.68018 10.1898C10.0202 10.5198 10.4502 10.7498 10.9302 10.8498V9.71984C10.8502 9.67984 10.7602 9.63984 10.6902 9.58984V9.59984Z" fill="#3387C5"/>
<path d="M10.9302 7.26965V6.13965C10.4502 6.23965 10.0102 6.47965 9.68018 6.79965L10.6902 7.38965C10.7702 7.33965 10.8502 7.29965 10.9302 7.25965V7.26965Z" fill="#3387C5"/>
<path d="M12.3098 7.40039L13.3198 6.81039C12.9798 6.48039 12.5498 6.25039 12.0698 6.15039V7.28039C12.1598 7.32039 12.2398 7.36039 12.3098 7.41039V7.40039Z" fill="#3387C5"/>
<path d="M10.0799 8.50047C10.0799 8.44047 10.0899 8.38047 10.0999 8.32047L9.08994 7.73047C8.99994 7.97047 8.93994 8.23047 8.93994 8.50047C8.93994 8.77047 8.99994 9.03047 9.08994 9.27047L10.0999 8.68047C10.0999 8.62047 10.0799 8.56047 10.0799 8.50047Z" fill="#3387C5"/>
<path d="M12.0698 9.73035V10.8604C12.5498 10.7604 12.9898 10.5204 13.3198 10.2004L12.3098 9.61035C12.2298 9.66035 12.1498 9.70035 12.0698 9.74035V9.73035Z" fill="#3387C5"/>
<path d="M11.5002 9.85023C11.3002 9.85023 11.1102 9.81023 10.9302 9.74023V10.8702C11.1102 10.9102 11.3002 10.9402 11.5002 10.9402C11.7002 10.9402 11.8802 10.9102 12.0702 10.8702V9.74023C11.9002 9.81023 11.7002 9.85023 11.5002 9.85023Z" fill="#3387C5"/>
<path d="M11.5002 7.14957C11.7002 7.14957 11.8902 7.18957 12.0702 7.25957V6.12957C11.8902 6.08957 11.7002 6.05957 11.5002 6.05957C11.3002 6.05957 11.1202 6.08957 10.9302 6.12957V7.25957C11.1002 7.18957 11.3002 7.14957 11.5002 7.14957Z" fill="#3387C5"/>
<path d="M10.6898 7.39957L9.67984 6.80957C9.40984 7.06957 9.21984 7.37957 9.08984 7.72957L10.0998 8.31957C10.1598 7.93957 10.3698 7.60957 10.6898 7.39957Z" fill="#3387C5"/>
<path d="M12.9001 8.67969C12.8401 9.05969 12.6301 9.38969 12.3101 9.59969L13.3201 10.1897C13.5901 9.92969 13.7801 9.61969 13.9101 9.26969L12.9001 8.67969Z" fill="#3387C5"/>
<path d="M10.0998 8.67969L9.08984 9.26969C9.21984 9.61969 9.40984 9.92969 9.67984 10.1897L10.6898 9.59969C10.3698 9.38969 10.1498 9.05969 10.0998 8.67969Z" fill="#3387C5"/>
<path d="M12.9001 8.31957L13.9101 7.72957C13.7901 7.37957 13.5901 7.06957 13.3201 6.80957L12.3101 7.39957C12.6301 7.60957 12.8501 7.93957 12.9001 8.31957Z" fill="#3387C5"/>
<path d="M4 7.05957H3V13.9896H4V7.05957Z" fill="#3387C5"/>
<path d="M1 12.0596H6L3.5 15.0596L1 12.0596Z" fill="#3387C5"/>
<path d="M5 10H6L6 3.07H5L5 10Z" fill="#3387C5"/>
<path d="M8 5H3L5.5 2L8 5Z" fill="#3387C5"/>
</g>
<defs>
<clipPath id="clip0_3815_9540">
<rect width="14" height="13.06" fill="white" transform="translate(1 2)"/>
</clipPath>
</defs>
</svg>
