<svg width="16" height="16" viewBox="0 0 16 16" fill="none" xmlns="http://www.w3.org/2000/svg">
<g clip-path="url(#clip0_3815_7732)">
<path d="M9.00977 10.0003V8.00027C9.00977 6.90027 9.90977 6.00027 11.0098 6.00027H12.9998V7.53027L15.4998 5.53027L12.9998 3.53027V5.00027H11.0098C9.35977 5.00027 8.00977 6.35027 8.00977 8.00027V10.0003H9.00977Z" fill="#3387C5"/>
<path d="M15.25 7.34023C15.05 7.62023 14.82 7.87023 14.56 8.09023C14.83 8.49023 15 8.98023 15 9.50023C15 10.8802 13.88 12.0002 12.5 12.0002H3.57C2.13 11.8902 1 10.6902 1 9.25023C1 7.73023 2.23 6.50023 3.75 6.50023C3.88 6.50023 4.03 6.51023 4.19 6.54023L4.96 6.66023L5.27 5.95023C5.79 4.76023 6.96 4.00023 8.25 4.00023C8.93 4.00023 9.56 4.21023 10.09 4.57023L10.97 3.98023C10.23 3.37023 9.29 2.99023 8.25 2.99023C6.51 2.99023 5.01 4.04023 4.35 5.54023C4.15 5.51023 3.95 5.49023 3.75 5.49023C1.68 5.49023 0 7.17023 0 9.24023C0 11.3102 1.55 12.8502 3.5 12.9802L12.5 12.9902C14.43 12.9902 16 11.4202 16 9.49023C16 8.67023 15.72 7.93023 15.25 7.33023V7.34023Z" fill="#3387C5"/>
</g>
<defs>
<clipPath id="clip0_3815_7732">
<rect width="16" height="10" fill="white" transform="translate(0 3)"/>
</clipPath>
</defs>
</svg>
