<svg width="16" height="16" viewBox="0 0 16 16" fill="none" xmlns="http://www.w3.org/2000/svg">
<g clip-path="url(#clip0_3814_5102)">
<path d="M13 13V14H3V13H2V14.94C2 14.94 2.03 15 2.06 15H14V13H13Z" fill="#3387C5"/>
<path d="M3 6V2H10V5H13V6H14V4.59L10.41 1H2V6H3Z" fill="#3387C5"/>
<path d="M4 10.54C4 11.56 3.49 12 2.46 12C2.02 12 1.67 11.95 1.4 11.68C1.13 11.41 1 10.42 1 10H2C2 10.25 1.83 10.74 2 11C2.07 11.1 2.92 11 3 11C3.28 11 3 10.97 3 10.56V7H4V10.54Z" fill="#3388C6"/>
<path d="M9.99977 12H8.99977L8.40977 11H6.58977L6.00977 12H5.00977L7.03977 7H7.98977L10.0098 12H9.99977ZM7.99977 10V9H6.99977L6.91977 10H7.99977Z" fill="#3388C6"/>
<path d="M14.89 12H14V11H13V10H12V12H11V7H12.9C13.47 7 13.93 7.15 14.28 7.44C14.63 7.73 15 8.46 15 9C15 9.4 14.25 8.71 14 9C13.75 9.29 14.41 9.94 14 10L14.89 12ZM12 8V9H13.5V8H12Z" fill="#3388C6"/>
</g>
<defs>
<clipPath id="clip0_3814_5102">
<rect width="14" height="14" fill="white" transform="translate(1 1)"/>
</clipPath>
</defs>
</svg>
