<svg width="16" height="16" viewBox="0 0 16 16" fill="none" xmlns="http://www.w3.org/2000/svg">
<g clip-path="url(#clip0_3814_5822)">
<path d="M13 13V14H3V13H2V15H14V13H13Z" fill="#3387C5"/>
<path d="M3 6V2H10V5H13V6H14V4.59L10.41 1H2V6H3Z" fill="#3387C5"/>
<path d="M6.02023 10.4698C6.02023 10.9898 5.87023 11.3898 5.56023 11.6598C5.29023 11.8898 4.92023 12.0098 4.44023 12.0098H2.99023V7.00977H4.42023C4.82023 7.00977 5.15023 7.10977 5.39023 7.29977C5.67023 7.52977 5.81023 7.85977 5.81023 8.30977C5.81023 8.75977 5.64023 9.10977 5.31023 9.31977C5.78023 9.49977 6.02023 9.88977 6.02023 10.4698ZM4.86023 8.46977C4.86023 8.15977 4.69023 8.00977 4.36023 8.00977H3.95023V8.97977H4.32023C4.68023 8.97977 4.87023 8.80977 4.87023 8.46977H4.86023ZM3.95023 9.87977V10.9998H4.47023C4.88023 10.9998 5.08023 10.8098 5.08023 10.4398C5.08023 10.0698 4.88023 9.87977 4.49023 9.87977H3.95023Z" fill="#3388C6"/>
<path d="M7.99977 12H7.00977V7H7.99977V12Z" fill="#3388C6"/>
<path d="M13 12H12L10.5 8.72V12H9.5V7H10.5L12 10.29V7H13V12Z" fill="#3388C6"/>
</g>
<defs>
<clipPath id="clip0_3814_5822">
<rect width="12" height="14" fill="white" transform="translate(2 1)"/>
</clipPath>
</defs>
</svg>
