<svg width="16" height="16" viewBox="0 0 16 16" fill="none" xmlns="http://www.w3.org/2000/svg">
<g clip-path="url(#clip0_3798_426)">
<path d="M10.59 2L14 5.41V13.08L13.09 13.99H2V2H10.59ZM11 1H1V15H13.5L15 13.5V5L11 1Z" fill="#3387C5"/>
<path d="M10 5H3V6H10V5Z" fill="#3387C5"/>
<path d="M4 2H3V6H4V2Z" fill="#3387C5"/>
<path d="M8 3H7V4H8V3Z" fill="#3387C5"/>
<path d="M10 2H9V6H10V2Z" fill="#3387C5"/>
<path d="M11.75 16C14.0972 16 16 14.0972 16 11.75C16 9.40279 14.0972 7.5 11.75 7.5C9.40279 7.5 7.5 9.40279 7.5 11.75C7.5 14.0972 9.40279 16 11.75 16Z" fill="#3387C5"/>
<path d="M12.5 10H11.5V12H12.5V10Z" fill="white"/>
<path d="M11.6391 11.3814L9.51074 13.5098L10.2178 14.2169L12.3462 12.0885L11.6391 11.3814Z" fill="white"/>
</g>
<defs>
<clipPath id="clip0_3798_426">
<rect width="15" height="15" fill="white" transform="translate(1 1)"/>
</clipPath>
</defs>
</svg>
