<svg width="16" height="16" viewBox="0 0 16 16" fill="none" xmlns="http://www.w3.org/2000/svg">
<g clip-path="url(#clip0_3815_6446)">
<path d="M8 3C9.65 3 11 4.35 11 6.04V6.13L10.93 7.62L12.33 7.12C12.55 7.04 12.78 7 13 7C14.1 7 15 7.9 15 9C15 10.1 14.1 11 13 11H3.57C2.13 10.89 1 9.69 1 8.25C1 6.73 2.23 5.5 3.75 5.5C3.86 5.5 3.99 5.51 4.14 5.53L4.92 5.64L5.21 4.9C5.66 3.74 6.76 2.99 8 2.99M8 2C6.31 2 4.86 3.05 4.28 4.54C4.11 4.52 3.93 4.5 3.75 4.5C1.68 4.5 0 6.18 0 8.25C0 10.32 1.55 11.86 3.5 11.99L13 12C14.66 12 16 10.66 16 9C16 7.34 14.66 6 13 6C12.65 6 12.31 6.06 11.99 6.18C11.99 6.12 11.99 6.06 11.99 6C11.99 3.79 10.2 2 7.99 2L8 2Z" fill="#3387C5"/>
<path d="M11 15H4V7H9L11 9V15Z" fill="#3387C5"/>
<path d="M7.5 13L6 11H9L7.5 13Z" fill="white"/>
<path d="M8 9H7V12H8V9Z" fill="white"/>
</g>
<defs>
<clipPath id="clip0_3815_6446">
<rect width="16" height="13" fill="white" transform="translate(0 2)"/>
</clipPath>
</defs>
</svg>
