<svg width="16" height="16" viewBox="0 0 16 16" fill="none" xmlns="http://www.w3.org/2000/svg">
<g clip-path="url(#clip0_3815_8754)">
<path d="M8 2C9.65 2 11 3.35 11 5.04V5.13L10.93 6.62L12.33 6.12C12.55 6.04 12.78 6 13 6C14.1 6 15 6.9 15 8C15 9.1 14.1 10 13 10H3.57C2.13 9.89 1 8.69 1 7.25C1 5.73 2.23 4.5 3.75 4.5C3.86 4.5 3.99 4.51 4.14 4.53L4.92 4.64L5.21 3.9C5.66 2.74 6.76 1.99 8 1.99M8 1C6.31 1 4.86 2.05 4.28 3.54C4.11 3.52 3.93 3.5 3.75 3.5C1.68 3.5 0 5.18 0 7.25C0 9.32 1.55 10.86 3.5 10.99L13 11C14.66 11 16 9.66 16 8C16 6.34 14.66 5 13 5C12.65 5 12.31 5.06 11.99 5.18C11.99 5.12 11.99 5.06 11.99 5C11.99 2.79 10.2 1 7.99 1L8 1Z" fill="#3387C5"/>
<path d="M11 14H4V6H9L11 8V14Z" fill="#3387C5"/>
<path d="M7.5 8L9 10H6L7.5 8Z" fill="white"/>
<path d="M7 12H8V9H7V12Z" fill="white"/>
</g>
<defs>
<clipPath id="clip0_3815_8754">
<rect width="16" height="13" fill="white" transform="translate(0 1)"/>
</clipPath>
</defs>
</svg>
