<svg width="16" height="16" viewBox="0 0 16 16" fill="none" xmlns="http://www.w3.org/2000/svg">
<g clip-path="url(#clip0_3794_375)">
<path d="M14.4 3.96046C14.31 3.61046 14.17 3.28046 13.99 2.96046L13.38 3.57046L13.25 3.70046L11.61 5.34046L10.2 3.93046L11.84 2.29046L11.97 2.16046L12.58 1.55046C12.26 1.37046 11.92 1.23046 11.58 1.14046C10.25 0.790463 8.77 1.12046 7.73 2.16046C6.69 3.20046 6.36 4.68046 6.71 6.01046L1 11.7005L3.83 14.5305L9.53 8.83046C10.86 9.18046 12.34 8.85046 13.38 7.81046C14.42 6.77046 14.75 5.29046 14.4 3.96046ZM9.26 7.68046L3.83 13.1105L2.42 11.7005L7.85 6.27046C7.32 5.16046 7.51 3.79046 8.43 2.86046C9.05 2.24046 9.89 1.96046 10.71 2.00046L8.79 3.92046L11.62 6.75046L13.54 4.83046C13.58 5.65046 13.3 6.48046 12.68 7.11046C11.76 8.03046 10.39 8.22046 9.27 7.69046L9.26 7.68046Z" fill="#3387C5"/>
</g>
<defs>
<clipPath id="clip0_3794_375">
<rect width="13.53" height="13.53" fill="white" transform="translate(1 1)"/>
</clipPath>
</defs>
</svg>
