<svg width="16" height="16" viewBox="0 0 16 16" fill="none" xmlns="http://www.w3.org/2000/svg">
<g clip-path="url(#clip0_3802_1035)">
<path d="M13 2V14H3V2H13ZM14 1H2V15H14V1Z" fill="#ED8000"/>
<path d="M10.5902 10.5C10.0702 11.4 9.10023 12 8.00023 12C6.35023 12 5.00023 10.65 5.00023 9V7C5.00023 5.35 6.35023 4 8.00023 4C9.11023 4 10.0702 4.6 10.5902 5.5H11.7002C11.1102 4.03 9.67023 3 7.99023 3C5.78023 3 3.99023 4.79 3.99023 7V9C3.99023 11.21 5.78023 13 7.99023 13C9.67023 13 11.1002 11.97 11.7002 10.5H10.5902Z" fill="#ED8000"/>
</g>
<defs>
<clipPath id="clip0_3802_1035">
<rect width="12" height="14" fill="white" transform="translate(2 1)"/>
</clipPath>
</defs>
</svg>
