<svg width="16" height="16" viewBox="0 0 16 16" fill="none" xmlns="http://www.w3.org/2000/svg">
<g clip-path="url(#clip0_3814_4458)">
<path d="M15 4H9L7 2H1V14H15V4Z" fill="#ED8000"/>
<path d="M5 8C6.1 8 7 8.9 7 10C7 11.1 6.1 12 5 12C3.9 12 3 11.1 3 10C3 8.9 3.9 8 5 8ZM5 7C3.34 7 2 8.34 2 10C2 11.66 3.34 13 5 13C6.66 13 8 11.66 8 10C8 8.34 6.66 7 5 7Z" fill="white"/>
<path d="M14 9H7V10H14V9Z" fill="white"/>
<path d="M13 10H12V12H13V10Z" fill="white"/>
<path d="M11 10H10V12H11V10Z" fill="white"/>
</g>
<defs>
<clipPath id="clip0_3814_4458">
<rect width="14" height="12" fill="white" transform="translate(1 2)"/>
</clipPath>
</defs>
</svg>
