<svg width="16" height="16" viewBox="0 0 16 16" fill="none" xmlns="http://www.w3.org/2000/svg">
<path d="M6.5 3C7.46 3 8.25 3.79 8.25 4.75C8.25 5.71 7.46 6.5 6.5 6.5C5.54 6.5 4.75 5.71 4.75 4.75C4.75 3.79 5.54 3 6.5 3ZM6.5 2C4.98 2 3.75 3.23 3.75 4.75C3.75 6.27 4.98 7.5 6.5 7.5C8.02 7.5 9.25 6.27 9.25 4.75C9.25 3.23 8.02 2 6.5 2Z" fill="#3387C5"/>
<path d="M9.50027 2C9.25027 2 9.01027 2.04 8.78027 2.1C9.08027 2.36 9.33027 2.66 9.53027 3C10.4803 3.02 11.2503 3.79 11.2503 4.75C11.2503 5.71 10.4803 6.48 9.53027 6.5C9.33027 6.84 9.08027 7.15 8.78027 7.4C9.01027 7.46 9.25027 7.5 9.50027 7.5C11.0203 7.5 12.2503 6.27 12.2503 4.75C12.2503 3.23 11.0203 2 9.50027 2Z" fill="#3387C5"/>
<g clip-path="url(#clip0_3814_4822)">
<path d="M6.5 10C8.66 10 9.93 10.79 11 11.58V13H2V11.58C3.07 10.79 4.34 10 6.5 10ZM6.5 9C3.75 9 2.22 10.16 1 11.08V14H12V11.08C10.78 10.15 9.25 9 6.5 9Z" fill="#3387C5"/>
<path d="M11.5002 10.11C11.5002 10.11 11.6802 10.17 11.7602 10.24C12.6702 10.56 13.3702 11.03 14.0002 11.52V12.89H13.0002V14H15.0002V10.94C14.1102 10.23 13.0602 9.4 11.4902 9C11.5002 9.56 11.5002 10.11 11.5002 10.11Z" fill="#3387C5"/>
</g>
<defs>
<clipPath id="clip0_3814_4822">
<rect width="14" height="5" fill="white" transform="translate(1 9)"/>
</clipPath>
</defs>
</svg>
