<svg width="16" height="16" viewBox="0 0 16 16" fill="none" xmlns="http://www.w3.org/2000/svg">
<g clip-path="url(#clip0_3814_5136)">
<path d="M13.99 10.0102C13.86 11.1302 13.16 12.0102 12 12.0102C10.76 12.0102 10 11.0002 10 9.76023V6.25023C10 5.01023 10.76 4.00023 12 4.00023C13.16 4.00023 13.86 4.88023 13.99 6.00023H15C14.87 4.32023 13.71 2.99023 12 2.99023C10.2 2.99023 9 4.45023 9 6.25023V9.76023C9 11.5602 10.2 13.0202 12 13.0202C13.8 13.0202 14.87 11.7002 15 10.0102H13.99Z" fill="#ED8000"/>
<path d="M6 3V9.76C6 11 5.24 12.01 4 12.01C2.84 12.01 2.14 11.13 2.01 10.01H1C1.13 11.69 2.29 13.02 4 13.02C5.8 13.02 7 11.56 7 9.76V3H6Z" fill="#3387C5"/>
</g>
<defs>
<clipPath id="clip0_3814_5136">
<rect width="14" height="10.02" fill="white" transform="translate(1 3)"/>
</clipPath>
</defs>
</svg>
