<svg width="16" height="16" viewBox="0 0 16 16" fill="none" xmlns="http://www.w3.org/2000/svg">
<g clip-path="url(#clip0_3814_5222)">
<path d="M2.01973 2C2.01973 2 1.97973 15 2.01973 15H13.9997V2H2.01973ZM2.99973 14V3H12.9997V14H2.99973Z" fill="#3387C5"/>
<path d="M11.9995 6H4.01953V7H11.9995V6Z" fill="#3387C5"/>
<path d="M4 1V4H5V1H4Z" fill="#3387C5"/>
<path d="M6 1V4H7V1H6Z" fill="#3387C5"/>
<path d="M8 1V4H9V1H8Z" fill="#3387C5"/>
<path d="M10 1V4H11V1H10Z" fill="#3387C5"/>
<path d="M11.9995 9H4.01953V10H11.9995V9Z" fill="#3387C5"/>
<path d="M11.9895 12H4.01953V13H11.9895V12Z" fill="#3387C5"/>
</g>
<defs>
<clipPath id="clip0_3814_5222">
<rect width="12" height="14" fill="white" transform="translate(2 1)"/>
</clipPath>
</defs>
</svg>
