<svg width="16" height="16" viewBox="0 0 16 16" fill="none" xmlns="http://www.w3.org/2000/svg">
<g clip-path="url(#clip0_3815_6519)">
<path d="M8 2.16L13 5.08V10.93L8 13.85L3 10.93V5.08L8 2.16ZM8 1L2 4.5V11.5L8 15L14 11.5V4.5L8 1Z" fill="#3387C5"/>
<path d="M13.11 4.87988L8 7.86988L2.89 4.87988L2 5.42988L8 8.92988L14 5.42988L13.11 4.87988Z" fill="#3387C5"/>
<path d="M11.1104 6.11965L6.00035 3.13965L5.11035 3.68965L10.4404 6.79965L11.1104 6.11965Z" fill="#3387C5"/>
<path d="M8 8H7V15H8V8Z" fill="#3387C5"/>
</g>
<defs>
<clipPath id="clip0_3815_6519">
<rect width="12" height="14" fill="white" transform="translate(2 1)"/>
</clipPath>
</defs>
</svg>
