<svg width="16" height="16" viewBox="0 0 16 16" fill="none" xmlns="http://www.w3.org/2000/svg">
<path d="M5 4.82H3V2C1.84 2.41 1 3.52 1 4.82C1 5.93 2.1 6.9 3 7.42V13.82H5V7.42C5.9 6.9 7 5.93 7 4.82C7 3.51 6.16 2.41 5 2V4.82Z" fill="#3387C5"/>
<path d="M10 4H8V5H10V4Z" fill="#3387C5"/>
<path d="M10 7H8V8H10V7Z" fill="#3387C5"/>
<path d="M10 10H8V11H10V10Z" fill="#3387C5"/>
<path d="M15 4H11V6H15V4Z" fill="#3387C5"/>
<path d="M15 7H11V9H15V7Z" fill="#3387C5"/>
<path d="M15 10H11V12H15V10Z" fill="#3387C5"/>
</svg>
