<svg width="16" height="16" viewBox="0 0 16 16" fill="none" xmlns="http://www.w3.org/2000/svg">
<g clip-path="url(#clip0_3815_8892)">
<path d="M13 13.5V14H3V13H2V14.94C2 14.94 2.03 15 2.06 15H14V13.5H13Z" fill="#3387C5"/>
<path d="M3 13V2H10L13 5V14H14V4.59L10.41 1H2V13H3Z" fill="#3387C5"/>
<path d="M6 5H4V6H6V5Z" fill="#3387C5"/>
<path d="M6 8H4V9H6V8Z" fill="#3387C5"/>
<path d="M6 11H4V12H6V11Z" fill="#3387C5"/>
<path d="M11 5H7V7H11V5Z" fill="#3387C5"/>
<path d="M11 8H7V10H11V8Z" fill="#3387C5"/>
<path d="M11 11H7.5V13H11V11Z" fill="#3387C5"/>
<path d="M11.5 16C13.9853 16 16 13.9853 16 11.5C16 9.01472 13.9853 7 11.5 7C9.01472 7 7 9.01472 7 11.5C7 13.9853 9.01472 16 11.5 16Z" fill="#3387C5"/>
<path d="M14 10H13V14H14V10Z" fill="white"/>
<path d="M14 13H10V14H14V13Z" fill="white"/>
<path d="M10 10L13 13" stroke="white" stroke-miterlimit="10"/>
</g>
<defs>
<clipPath id="clip0_3815_8892">
<rect width="14" height="15" fill="white" transform="translate(2 1)"/>
</clipPath>
</defs>
</svg>
