<svg width="16" height="16" viewBox="0 0 16 16" fill="none" xmlns="http://www.w3.org/2000/svg">
<g clip-path="url(#clip0_3815_9170)">
<path d="M12 10C13.1 10 14 10.9 14 12C14 13.1 13.1 14 12 14C10.9 14 10 13.1 10 12C10 10.9 10.9 10 12 10ZM12 9C10.34 9 9 10.34 9 12C9 13.66 10.34 15 12 15C13.66 15 15 13.66 15 12C15 10.34 13.66 9 12 9Z" fill="#4FA143"/>
<path d="M12 2C13.1 2 14 2.9 14 4C14 5.1 13.1 6 12 6C10.9 6 10 5.1 10 4C10 2.9 10.9 2 12 2ZM12 1C10.34 1 9 2.34 9 4C9 5.66 10.34 7 12 7C13.66 7 15 5.66 15 4C15 2.34 13.66 1 12 1Z" fill="#3387C5"/>
<path d="M4 2C5.1 2 6 2.9 6 4C6 5.1 5.1 6 4 6C2.9 6 2 5.1 2 4C2 2.9 2.9 2 4 2ZM4 1C2.34 1 1 2.34 1 4C1 5.66 2.34 7 4 7C5.66 7 7 5.66 7 4C7 2.34 5.66 1 4 1Z" fill="#3387C5"/>
<path d="M4 10C5.1 10 6 10.9 6 12C6 13.1 5.1 14 4 14C2.9 14 2 13.1 2 12C2 10.9 2.9 10 4 10ZM4 9C2.34 9 1 10.34 1 12C1 13.66 2.34 15 4 15C5.66 15 7 13.66 7 12C7 10.34 5.66 9 4 9Z" fill="#3387C5"/>
<path d="M5.04 7H4V9.59H5.04V7Z" fill="#3387C5"/>
<path d="M9.89618 5.89289L5.82324 9.96582L6.55863 10.7012L10.6316 6.62828L9.89618 5.89289Z" fill="#3387C5"/>
</g>
<defs>
<clipPath id="clip0_3815_9170">
<rect width="14" height="14" fill="white" transform="translate(1 1)"/>
</clipPath>
</defs>
</svg>
