<svg width="16" height="16" viewBox="0 0 16 16" fill="none" xmlns="http://www.w3.org/2000/svg">
<g clip-path="url(#clip0_3822_11770)">
<path d="M14 2H2V4H14V2Z" fill="#3387C5"/>
<path d="M6.5 14C7.32843 14 8 13.3284 8 12.5C8 11.6716 7.32843 11 6.5 11C5.67157 11 5 11.6716 5 12.5C5 13.3284 5.67157 14 6.5 14Z" fill="#ED8000"/>
<path d="M6.5 10C8.16 10 9.83 11.49 10.72 12.5C9.83 13.51 8.16 15 6.5 15C4.84 15 3.17 13.51 2.28 12.5C3.17 11.49 4.84 10 6.5 10ZM6.5 9C3.5 9 1 12.5 1 12.5C1 12.5 3.5 16 6.5 16C9.5 16 12 12.5 12 12.5C12 12.5 9.5 9 6.5 9Z" fill="#ED8000"/>
<path d="M16 16H13V15H15V13H16V16Z" fill="#3387C5"/>
<path d="M15.4987 14.7955L13.1016 12.3984L12.3945 13.1055L14.7915 15.5026L15.4987 14.7955Z" fill="#3387C5"/>
<path d="M1 1V10.94C1.27 10.64 1.61 10.31 2 9.97V8H14V12H15V1H1ZM14 7H8V3H7V7H2V2H14V7Z" fill="#3387C5"/>
</g>
<defs>
<clipPath id="clip0_3822_11770">
<rect width="15" height="15" fill="white" transform="translate(1 1)"/>
</clipPath>
</defs>
</svg>
